<svg xmlns="http://www.w3.org/2000/svg" xmlns:xlink="http://www.w3.org/1999/xlink" width="1920" zoomAndPan="magnify" viewBox="0 0 1440 809.999993" height="1080" preserveAspectRatio="xMidYMid meet" version="1.2"><defs/><g id="ec6ea1f2ee"><rect x="0" width="1440" y="0" height="809.999993" style="fill:#ffffff;fill-opacity:1;stroke:none;"/><rect x="0" width="1440" y="0" height="809.999993" style="fill:#ffffff;fill-opacity:1;stroke:none;"/><g style="fill:#000000;fill-opacity:1;"><g transform="translate(506.229485, 440.999998)"><path style="stroke:none" d="M 8.09375 0 L 8.09375 -72.296875 L 34.703125 -72.296875 C 39.960938 -72.296875 44.675781 -71.382812 48.84375 -69.5625 C 53.007812 -67.75 56.300781 -65.078125 58.71875 -61.546875 C 61.132812 -58.015625 62.34375 -53.695312 62.34375 -48.59375 C 62.34375 -43.800781 61.273438 -39.703125 59.140625 -36.296875 C 57.015625 -32.898438 54.023438 -30.300781 50.171875 -28.5 C 46.328125 -26.695312 41.800781 -25.796875 36.59375 -25.796875 L 22.796875 -25.796875 L 22.796875 0 Z M 22.65625 -37.09375 L 36.203125 -37.09375 C 39.867188 -37.09375 42.867188 -38.269531 45.203125 -40.625 C 47.535156 -42.976562 48.703125 -45.882812 48.703125 -49.34375 C 48.703125 -52.945312 47.46875 -55.804688 45 -57.921875 C 42.53125 -60.035156 39.53125 -61.09375 36 -61.09375 L 22.65625 -61.09375 Z M 22.65625 -37.09375 "/></g></g><g style="fill:#000000;fill-opacity:1;"><g transform="translate(571.476849, 440.999998)"><path style="stroke:none" d="M 6.25 0 L 6.25 -51.703125 L 20.296875 -51.703125 L 20.296875 -39.453125 C 21.128906 -42.085938 22.300781 -44.394531 23.8125 -46.375 C 25.332031 -48.351562 27.175781 -49.898438 29.34375 -51.015625 C 31.507812 -52.140625 33.960938 -52.703125 36.703125 -52.703125 C 37.171875 -52.703125 37.613281 -52.675781 38.03125 -52.625 C 38.445312 -52.570312 38.753906 -52.5 38.953125 -52.40625 L 38.953125 -38.5 C 38.648438 -38.632812 38.289062 -38.71875 37.875 -38.75 C 37.457031 -38.78125 37.082031 -38.8125 36.75 -38.84375 C 33.882812 -39.082031 31.429688 -39 29.390625 -38.59375 C 27.359375 -38.195312 25.707031 -37.515625 24.4375 -36.546875 C 23.175781 -35.578125 22.257812 -34.394531 21.6875 -33 C 21.125 -31.601562 20.84375 -30.035156 20.84375 -28.296875 L 20.84375 0 Z M 6.25 0 "/></g></g><g style="fill:#000000;fill-opacity:1;"><g transform="translate(611.825213, 440.999998)"><path style="stroke:none" d="M 28.453125 1 C 23.378906 1 18.96875 -0.0820312 15.21875 -2.25 C 11.46875 -4.414062 8.566406 -7.484375 6.515625 -11.453125 C 4.472656 -15.421875 3.453125 -20.117188 3.453125 -25.546875 C 3.453125 -30.984375 4.472656 -35.734375 6.515625 -39.796875 C 8.566406 -43.867188 11.46875 -47.035156 15.21875 -49.296875 C 18.96875 -51.566406 23.394531 -52.703125 28.5 -52.703125 C 33.601562 -52.703125 38.019531 -51.59375 41.75 -49.375 C 45.476562 -47.15625 48.359375 -44.007812 50.390625 -39.9375 C 52.429688 -35.875 53.453125 -31.078125 53.453125 -25.546875 C 53.453125 -20.347656 52.457031 -15.753906 50.46875 -11.765625 C 48.488281 -7.785156 45.640625 -4.660156 41.921875 -2.390625 C 38.203125 -0.128906 33.710938 1 28.453125 1 Z M 28.5 -9.84375 C 31.0625 -9.84375 33.125 -10.59375 34.6875 -12.09375 C 36.257812 -13.59375 37.40625 -15.566406 38.125 -18.015625 C 38.84375 -20.472656 39.203125 -23.148438 39.203125 -26.046875 C 39.203125 -28.785156 38.875 -31.367188 38.21875 -33.796875 C 37.570312 -36.234375 36.460938 -38.203125 34.890625 -39.703125 C 33.328125 -41.203125 31.195312 -41.953125 28.5 -41.953125 C 25.9375 -41.953125 23.863281 -41.242188 22.28125 -39.828125 C 20.695312 -38.410156 19.535156 -36.492188 18.796875 -34.078125 C 18.066406 -31.660156 17.703125 -28.984375 17.703125 -26.046875 C 17.703125 -23.347656 18.035156 -20.753906 18.703125 -18.265625 C 19.367188 -15.785156 20.484375 -13.757812 22.046875 -12.1875 C 23.617188 -10.625 25.769531 -9.84375 28.5 -9.84375 Z M 28.5 -9.84375 "/></g></g><g style="fill:#000000;fill-opacity:1;"><g transform="translate(668.722923, 440.999998)"><path style="stroke:none" d="M 22.453125 -0.34375 C 22.453125 5.28125 21.082031 9.507812 18.34375 12.34375 C 15.613281 15.175781 11.179688 16.59375 5.046875 16.59375 C 2.347656 16.59375 0.578125 16.351562 -0.265625 15.875 C -1.117188 15.394531 -1.546875 15.15625 -1.546875 15.15625 L -1.59375 5.40625 L 2.40625 5 C 4.46875 4.726562 5.898438 4.160156 6.703125 3.296875 C 7.503906 2.429688 7.90625 1.164062 7.90625 -0.5 L 7.90625 -51.703125 L 22.453125 -51.703125 Z M 22.59375 -72.25 L 22.59375 -59.09375 L 7.703125 -59.09375 L 7.703125 -72.25 Z M 22.59375 -72.25 "/></g></g><g style="fill:#000000;fill-opacity:1;"><g transform="translate(697.57176, 440.999998)"><path style="stroke:none" d="M 18.25 -22.5 C 18.21875 -19.863281 18.632812 -17.570312 19.5 -15.625 C 20.363281 -13.675781 21.617188 -12.175781 23.265625 -11.125 C 24.921875 -10.070312 26.914062 -9.546875 29.25 -9.546875 C 31.75 -9.546875 33.941406 -10.078125 35.828125 -11.140625 C 37.710938 -12.210938 39.019531 -13.96875 39.75 -16.40625 L 52.90625 -16.40625 C 52.332031 -12.738281 50.867188 -9.601562 48.515625 -7 C 46.171875 -4.394531 43.332031 -2.410156 40 -1.046875 C 36.664062 0.316406 33.195312 1 29.59375 1 C 24.5 1 20.007812 -0.0703125 16.125 -2.21875 C 12.238281 -4.375 9.210938 -7.414062 7.046875 -11.34375 C 4.878906 -15.28125 3.796875 -19.914062 3.796875 -25.25 C 3.796875 -30.414062 4.78125 -35.070312 6.75 -39.21875 C 8.71875 -43.375 11.578125 -46.660156 15.328125 -49.078125 C 19.078125 -51.492188 23.582031 -52.703125 28.84375 -52.703125 C 34.113281 -52.703125 38.539062 -51.59375 42.125 -49.375 C 45.707031 -47.15625 48.40625 -44.070312 50.21875 -40.125 C 52.039062 -36.175781 52.953125 -31.617188 52.953125 -26.453125 L 52.953125 -22.5 Z M 18.203125 -31.203125 L 39.296875 -31.203125 C 39.296875 -33.265625 38.910156 -35.160156 38.140625 -36.890625 C 37.378906 -38.628906 36.222656 -40 34.671875 -41 C 33.117188 -42 31.175781 -42.5 28.84375 -42.5 C 26.582031 -42.5 24.660156 -41.957031 23.078125 -40.875 C 21.492188 -39.789062 20.285156 -38.378906 19.453125 -36.640625 C 18.617188 -34.910156 18.203125 -33.097656 18.203125 -31.203125 Z M 18.203125 -31.203125 "/></g></g><g style="fill:#000000;fill-opacity:1;"><g transform="translate(754.419459, 440.999998)"><path style="stroke:none" d="M 28.40625 -52.703125 C 32.738281 -52.703125 36.476562 -51.816406 39.625 -50.046875 C 42.769531 -48.285156 45.25 -45.90625 47.0625 -42.90625 C 48.882812 -39.90625 49.929688 -36.550781 50.203125 -32.84375 L 38.046875 -32.84375 C 37.816406 -34.21875 37.332031 -35.578125 36.59375 -36.921875 C 35.863281 -38.273438 34.832031 -39.390625 33.5 -40.265625 C 32.164062 -41.148438 30.5 -41.59375 28.5 -41.59375 C 25.101562 -41.59375 22.34375 -40.285156 20.21875 -37.671875 C 18.101562 -35.054688 17.046875 -31.082031 17.046875 -25.75 C 17.046875 -20.71875 18.078125 -16.722656 20.140625 -13.765625 C 22.210938 -10.816406 25.097656 -9.34375 28.796875 -9.34375 C 30.765625 -9.34375 32.40625 -9.828125 33.71875 -10.796875 C 35.039062 -11.765625 36.066406 -12.921875 36.796875 -14.265625 C 37.535156 -15.617188 38.003906 -16.878906 38.203125 -18.046875 L 50.046875 -18.046875 C 49.816406 -14.484375 48.785156 -11.257812 46.953125 -8.375 C 45.117188 -5.488281 42.625 -3.203125 39.46875 -1.515625 C 36.320312 0.160156 32.632812 1 28.40625 1 C 23.601562 1 19.316406 -0.0664062 15.546875 -2.203125 C 11.785156 -4.335938 8.828125 -7.394531 6.671875 -11.375 C 4.523438 -15.351562 3.453125 -20.113281 3.453125 -25.65625 C 3.453125 -30.988281 4.484375 -35.6875 6.546875 -39.75 C 8.617188 -43.8125 11.53125 -46.984375 15.28125 -49.265625 C 19.03125 -51.554688 23.40625 -52.703125 28.40625 -52.703125 Z M 28.40625 -52.703125 "/></g></g><g style="fill:#000000;fill-opacity:1;"><g transform="translate(806.817329, 440.999998)"><path style="stroke:none" d="M 37.75 -41.546875 L 26.25 -41.546875 L 26.34375 -14 C 26.34375 -12.726562 26.5 -11.785156 26.8125 -11.171875 C 27.132812 -10.554688 27.632812 -10.15625 28.3125 -9.96875 C 29 -9.789062 29.878906 -9.703125 30.953125 -9.703125 L 37.90625 -9.703125 L 37.90625 -0.703125 C 37.238281 -0.398438 36.195312 -0.117188 34.78125 0.140625 C 33.363281 0.410156 31.382812 0.546875 28.84375 0.546875 C 24.3125 0.546875 20.800781 -0.0351562 18.3125 -1.203125 C 15.832031 -2.367188 14.109375 -4 13.140625 -6.09375 C 12.179688 -8.195312 11.703125 -10.632812 11.703125 -13.40625 L 11.703125 -41.546875 L 3.296875 -41.546875 L 3.296875 -51.703125 L 12.203125 -51.703125 L 15.84375 -67.296875 L 26.25 -67.296875 L 26.25 -51.75 L 37.75 -51.75 Z M 37.75 -41.546875 "/></g></g><g style="fill:#000000;fill-opacity:1;"><g transform="translate(870.26479, 440.999998)"><path style="stroke:none" d="M 5.65625 0 L 5.65625 -10.90625 C 5.65625 -14.570312 6.335938 -17.742188 7.703125 -20.421875 C 9.066406 -23.109375 10.875 -25.441406 13.125 -27.421875 C 15.375 -29.410156 17.835938 -31.15625 20.515625 -32.65625 C 23.203125 -34.15625 25.894531 -35.570312 28.59375 -36.90625 C 31.300781 -38.238281 33.78125 -39.578125 36.03125 -40.921875 C 38.28125 -42.273438 40.085938 -43.785156 41.453125 -45.453125 C 42.816406 -47.117188 43.5 -49.082031 43.5 -51.34375 C 43.5 -54.25 42.488281 -56.617188 40.46875 -58.453125 C 38.457031 -60.285156 35.703125 -61.203125 32.203125 -61.203125 C 28.566406 -61.203125 25.484375 -60.148438 22.953125 -58.046875 C 20.421875 -55.953125 18.851562 -52.785156 18.25 -48.546875 L 4.296875 -48.546875 C 4.367188 -53.148438 5.445312 -57.328125 7.53125 -61.078125 C 9.613281 -64.828125 12.738281 -67.800781 16.90625 -70 C 21.070312 -72.195312 26.300781 -73.296875 32.59375 -73.296875 C 38 -73.296875 42.660156 -72.378906 46.578125 -70.546875 C 50.492188 -68.710938 53.515625 -66.160156 55.640625 -62.890625 C 57.773438 -59.628906 58.84375 -55.816406 58.84375 -51.453125 C 58.84375 -47.816406 58.175781 -44.679688 56.84375 -42.046875 C 55.507812 -39.410156 53.742188 -37.160156 51.546875 -35.296875 C 49.347656 -33.429688 46.929688 -31.796875 44.296875 -30.390625 C 41.660156 -28.992188 39.035156 -27.695312 36.421875 -26.5 C 33.804688 -25.300781 31.398438 -24.078125 29.203125 -22.828125 C 27.003906 -21.578125 25.238281 -20.164062 23.90625 -18.59375 C 22.570312 -17.03125 21.90625 -15.148438 21.90625 -12.953125 L 21.90625 -12.296875 L 58.75 -12.296875 L 58.75 0 Z M 5.65625 0 "/></g></g></g></svg>