<svg xmlns="http://www.w3.org/2000/svg" xmlns:xlink="http://www.w3.org/1999/xlink" width="1920" zoomAndPan="magnify" viewBox="0 0 1440 809.999993" height="1080" preserveAspectRatio="xMidYMid meet" version="1.2"><defs/><g id="285c244755"><rect x="0" width="1440" y="0" height="809.999993" style="fill:#ffffff;fill-opacity:1;stroke:none;"/><rect x="0" width="1440" y="0" height="809.999993" style="fill:#ffffff;fill-opacity:1;stroke:none;"/><g style="fill:#000000;fill-opacity:1;"><g transform="translate(504.729485, 440.999998)"><path style="stroke:none" d="M 8.09375 0 L 8.09375 -72.296875 L 34.703125 -72.296875 C 39.960938 -72.296875 44.675781 -71.382812 48.84375 -69.5625 C 53.007812 -67.75 56.300781 -65.078125 58.71875 -61.546875 C 61.132812 -58.015625 62.34375 -53.695312 62.34375 -48.59375 C 62.34375 -43.800781 61.273438 -39.703125 59.140625 -36.296875 C 57.015625 -32.898438 54.023438 -30.300781 50.171875 -28.5 C 46.328125 -26.695312 41.800781 -25.796875 36.59375 -25.796875 L 22.796875 -25.796875 L 22.796875 0 Z M 22.65625 -37.09375 L 36.203125 -37.09375 C 39.867188 -37.09375 42.867188 -38.269531 45.203125 -40.625 C 47.535156 -42.976562 48.703125 -45.882812 48.703125 -49.34375 C 48.703125 -52.945312 47.46875 -55.804688 45 -57.921875 C 42.53125 -60.035156 39.53125 -61.09375 36 -61.09375 L 22.65625 -61.09375 Z M 22.65625 -37.09375 "/></g></g><g style="fill:#000000;fill-opacity:1;"><g transform="translate(569.976849, 440.999998)"><path style="stroke:none" d="M 6.25 0 L 6.25 -51.703125 L 20.296875 -51.703125 L 20.296875 -39.453125 C 21.128906 -42.085938 22.300781 -44.394531 23.8125 -46.375 C 25.332031 -48.351562 27.175781 -49.898438 29.34375 -51.015625 C 31.507812 -52.140625 33.960938 -52.703125 36.703125 -52.703125 C 37.171875 -52.703125 37.613281 -52.675781 38.03125 -52.625 C 38.445312 -52.570312 38.753906 -52.5 38.953125 -52.40625 L 38.953125 -38.5 C 38.648438 -38.632812 38.289062 -38.71875 37.875 -38.75 C 37.457031 -38.78125 37.082031 -38.8125 36.75 -38.84375 C 33.882812 -39.082031 31.429688 -39 29.390625 -38.59375 C 27.359375 -38.195312 25.707031 -37.515625 24.4375 -36.546875 C 23.175781 -35.578125 22.257812 -34.394531 21.6875 -33 C 21.125 -31.601562 20.84375 -30.035156 20.84375 -28.296875 L 20.84375 0 Z M 6.25 0 "/></g></g><g style="fill:#000000;fill-opacity:1;"><g transform="translate(610.325213, 440.999998)"><path style="stroke:none" d="M 28.453125 1 C 23.378906 1 18.96875 -0.0820312 15.21875 -2.25 C 11.46875 -4.414062 8.566406 -7.484375 6.515625 -11.453125 C 4.472656 -15.421875 3.453125 -20.117188 3.453125 -25.546875 C 3.453125 -30.984375 4.472656 -35.734375 6.515625 -39.796875 C 8.566406 -43.867188 11.46875 -47.035156 15.21875 -49.296875 C 18.96875 -51.566406 23.394531 -52.703125 28.5 -52.703125 C 33.601562 -52.703125 38.019531 -51.59375 41.75 -49.375 C 45.476562 -47.15625 48.359375 -44.007812 50.390625 -39.9375 C 52.429688 -35.875 53.453125 -31.078125 53.453125 -25.546875 C 53.453125 -20.347656 52.457031 -15.753906 50.46875 -11.765625 C 48.488281 -7.785156 45.640625 -4.660156 41.921875 -2.390625 C 38.203125 -0.128906 33.710938 1 28.453125 1 Z M 28.5 -9.84375 C 31.0625 -9.84375 33.125 -10.59375 34.6875 -12.09375 C 36.257812 -13.59375 37.40625 -15.566406 38.125 -18.015625 C 38.84375 -20.472656 39.203125 -23.148438 39.203125 -26.046875 C 39.203125 -28.785156 38.875 -31.367188 38.21875 -33.796875 C 37.570312 -36.234375 36.460938 -38.203125 34.890625 -39.703125 C 33.328125 -41.203125 31.195312 -41.953125 28.5 -41.953125 C 25.9375 -41.953125 23.863281 -41.242188 22.28125 -39.828125 C 20.695312 -38.410156 19.535156 -36.492188 18.796875 -34.078125 C 18.066406 -31.660156 17.703125 -28.984375 17.703125 -26.046875 C 17.703125 -23.347656 18.035156 -20.753906 18.703125 -18.265625 C 19.367188 -15.785156 20.484375 -13.757812 22.046875 -12.1875 C 23.617188 -10.625 25.769531 -9.84375 28.5 -9.84375 Z M 28.5 -9.84375 "/></g></g><g style="fill:#000000;fill-opacity:1;"><g transform="translate(667.222923, 440.999998)"><path style="stroke:none" d="M 22.453125 -0.34375 C 22.453125 5.28125 21.082031 9.507812 18.34375 12.34375 C 15.613281 15.175781 11.179688 16.59375 5.046875 16.59375 C 2.347656 16.59375 0.578125 16.351562 -0.265625 15.875 C -1.117188 15.394531 -1.546875 15.15625 -1.546875 15.15625 L -1.59375 5.40625 L 2.40625 5 C 4.46875 4.726562 5.898438 4.160156 6.703125 3.296875 C 7.503906 2.429688 7.90625 1.164062 7.90625 -0.5 L 7.90625 -51.703125 L 22.453125 -51.703125 Z M 22.59375 -72.25 L 22.59375 -59.09375 L 7.703125 -59.09375 L 7.703125 -72.25 Z M 22.59375 -72.25 "/></g></g><g style="fill:#000000;fill-opacity:1;"><g transform="translate(696.07176, 440.999998)"><path style="stroke:none" d="M 18.25 -22.5 C 18.21875 -19.863281 18.632812 -17.570312 19.5 -15.625 C 20.363281 -13.675781 21.617188 -12.175781 23.265625 -11.125 C 24.921875 -10.070312 26.914062 -9.546875 29.25 -9.546875 C 31.75 -9.546875 33.941406 -10.078125 35.828125 -11.140625 C 37.710938 -12.210938 39.019531 -13.96875 39.75 -16.40625 L 52.90625 -16.40625 C 52.332031 -12.738281 50.867188 -9.601562 48.515625 -7 C 46.171875 -4.394531 43.332031 -2.410156 40 -1.046875 C 36.664062 0.316406 33.195312 1 29.59375 1 C 24.5 1 20.007812 -0.0703125 16.125 -2.21875 C 12.238281 -4.375 9.210938 -7.414062 7.046875 -11.34375 C 4.878906 -15.28125 3.796875 -19.914062 3.796875 -25.25 C 3.796875 -30.414062 4.78125 -35.070312 6.75 -39.21875 C 8.71875 -43.375 11.578125 -46.660156 15.328125 -49.078125 C 19.078125 -51.492188 23.582031 -52.703125 28.84375 -52.703125 C 34.113281 -52.703125 38.539062 -51.59375 42.125 -49.375 C 45.707031 -47.15625 48.40625 -44.070312 50.21875 -40.125 C 52.039062 -36.175781 52.953125 -31.617188 52.953125 -26.453125 L 52.953125 -22.5 Z M 18.203125 -31.203125 L 39.296875 -31.203125 C 39.296875 -33.265625 38.910156 -35.160156 38.140625 -36.890625 C 37.378906 -38.628906 36.222656 -40 34.671875 -41 C 33.117188 -42 31.175781 -42.5 28.84375 -42.5 C 26.582031 -42.5 24.660156 -41.957031 23.078125 -40.875 C 21.492188 -39.789062 20.285156 -38.378906 19.453125 -36.640625 C 18.617188 -34.910156 18.203125 -33.097656 18.203125 -31.203125 Z M 18.203125 -31.203125 "/></g></g><g style="fill:#000000;fill-opacity:1;"><g transform="translate(752.919459, 440.999998)"><path style="stroke:none" d="M 28.40625 -52.703125 C 32.738281 -52.703125 36.476562 -51.816406 39.625 -50.046875 C 42.769531 -48.285156 45.25 -45.90625 47.0625 -42.90625 C 48.882812 -39.90625 49.929688 -36.550781 50.203125 -32.84375 L 38.046875 -32.84375 C 37.816406 -34.21875 37.332031 -35.578125 36.59375 -36.921875 C 35.863281 -38.273438 34.832031 -39.390625 33.5 -40.265625 C 32.164062 -41.148438 30.5 -41.59375 28.5 -41.59375 C 25.101562 -41.59375 22.34375 -40.285156 20.21875 -37.671875 C 18.101562 -35.054688 17.046875 -31.082031 17.046875 -25.75 C 17.046875 -20.71875 18.078125 -16.722656 20.140625 -13.765625 C 22.210938 -10.816406 25.097656 -9.34375 28.796875 -9.34375 C 30.765625 -9.34375 32.40625 -9.828125 33.71875 -10.796875 C 35.039062 -11.765625 36.066406 -12.921875 36.796875 -14.265625 C 37.535156 -15.617188 38.003906 -16.878906 38.203125 -18.046875 L 50.046875 -18.046875 C 49.816406 -14.484375 48.785156 -11.257812 46.953125 -8.375 C 45.117188 -5.488281 42.625 -3.203125 39.46875 -1.515625 C 36.320312 0.160156 32.632812 1 28.40625 1 C 23.601562 1 19.316406 -0.0664062 15.546875 -2.203125 C 11.785156 -4.335938 8.828125 -7.394531 6.671875 -11.375 C 4.523438 -15.351562 3.453125 -20.113281 3.453125 -25.65625 C 3.453125 -30.988281 4.484375 -35.6875 6.546875 -39.75 C 8.617188 -43.8125 11.53125 -46.984375 15.28125 -49.265625 C 19.03125 -51.554688 23.40625 -52.703125 28.40625 -52.703125 Z M 28.40625 -52.703125 "/></g></g><g style="fill:#000000;fill-opacity:1;"><g transform="translate(805.317329, 440.999998)"><path style="stroke:none" d="M 37.75 -41.546875 L 26.25 -41.546875 L 26.34375 -14 C 26.34375 -12.726562 26.5 -11.785156 26.8125 -11.171875 C 27.132812 -10.554688 27.632812 -10.15625 28.3125 -9.96875 C 29 -9.789062 29.878906 -9.703125 30.953125 -9.703125 L 37.90625 -9.703125 L 37.90625 -0.703125 C 37.238281 -0.398438 36.195312 -0.117188 34.78125 0.140625 C 33.363281 0.410156 31.382812 0.546875 28.84375 0.546875 C 24.3125 0.546875 20.800781 -0.0351562 18.3125 -1.203125 C 15.832031 -2.367188 14.109375 -4 13.140625 -6.09375 C 12.179688 -8.195312 11.703125 -10.632812 11.703125 -13.40625 L 11.703125 -41.546875 L 3.296875 -41.546875 L 3.296875 -51.703125 L 12.203125 -51.703125 L 15.84375 -67.296875 L 26.25 -67.296875 L 26.25 -51.75 L 37.75 -51.75 Z M 37.75 -41.546875 "/></g></g><g style="fill:#000000;fill-opacity:1;"><g transform="translate(868.764791, 440.999998)"><path style="stroke:none" d="M 4.84375 -50.046875 C 4.84375 -55.242188 6.066406 -59.5625 8.515625 -63 C 10.972656 -66.4375 14.285156 -69.007812 18.453125 -70.71875 C 22.617188 -72.4375 27.25 -73.296875 32.34375 -73.296875 C 37.75 -73.296875 42.554688 -72.59375 46.765625 -71.1875 C 50.984375 -69.789062 54.3125 -67.660156 56.75 -64.796875 C 59.1875 -61.929688 60.40625 -58.300781 60.40625 -53.90625 C 60.40625 -50.332031 59.367188 -47.1875 57.296875 -44.46875 C 55.234375 -41.757812 51.867188 -39.601562 47.203125 -38 C 49.867188 -37.269531 52.332031 -36.15625 54.59375 -34.65625 C 56.863281 -33.15625 58.679688 -31.238281 60.046875 -28.90625 C 61.410156 -26.570312 62.09375 -23.769531 62.09375 -20.5 C 62.09375 -16.96875 61.3125 -13.847656 59.75 -11.140625 C 58.1875 -8.441406 56.019531 -6.175781 53.25 -4.34375 C 50.476562 -2.507812 47.273438 -1.144531 43.640625 -0.25 C 40.015625 0.644531 36.132812 1.09375 32 1.09375 C 26.195312 1.0625 21.253906 0.109375 17.171875 -1.765625 C 13.085938 -3.648438 9.953125 -6.34375 7.765625 -9.84375 C 5.585938 -13.34375 4.46875 -17.507812 4.40625 -22.34375 L 18.453125 -22.34375 C 19.148438 -18.25 20.75 -15.285156 23.25 -13.453125 C 25.75 -11.617188 28.71875 -10.703125 32.15625 -10.703125 C 35.15625 -10.703125 37.726562 -11.132812 39.875 -12 C 42.019531 -12.863281 43.664062 -14.070312 44.8125 -15.625 C 45.96875 -17.175781 46.546875 -18.953125 46.546875 -20.953125 C 46.546875 -23.015625 45.953125 -24.796875 44.765625 -26.296875 C 43.585938 -27.796875 41.945312 -28.96875 39.84375 -29.8125 C 37.75 -30.664062 35.351562 -31.128906 32.65625 -31.203125 L 25.75 -31.453125 L 25.75 -43.046875 L 31.953125 -43.40625 C 34.546875 -43.5 36.8125 -43.976562 38.75 -44.84375 C 40.6875 -45.71875 42.195312 -46.878906 43.28125 -48.328125 C 44.363281 -49.773438 44.90625 -51.414062 44.90625 -53.25 C 44.90625 -55.019531 44.351562 -56.550781 43.25 -57.84375 C 42.144531 -59.144531 40.625 -60.160156 38.6875 -60.890625 C 36.757812 -61.628906 34.546875 -62 32.046875 -62 C 29.742188 -62 27.625 -61.613281 25.6875 -60.84375 C 23.757812 -60.082031 22.175781 -58.828125 20.9375 -57.078125 C 19.707031 -55.328125 18.992188 -52.984375 18.796875 -50.046875 Z M 4.84375 -50.046875 "/></g></g></g></svg>